<svg width="40" height="36" viewBox="0 0 40 36" fill="none" xmlns="http://www.w3.org/2000/svg">
<path d="M0.839285 15.9695C-0.276785 17.0926 -0.276785 18.9164 0.839284 20.0394L15.125 34.4144C16.2411 35.5375 18.0536 35.5375 19.1696 34.4144C20.2857 33.2914 20.2857 31.4676 19.1696 30.3445L9.75 20.875L37.1429 20.875C38.7232 20.875 40 19.5902 40 18C40 16.4097 38.7232 15.125 37.1429 15.125L9.75893 15.125L19.1607 5.65545C20.2768 4.5324 20.2768 2.70857 19.1607 1.58552C18.0446 0.462473 16.2321 0.462473 15.1161 1.58552L0.830358 15.9605L0.839285 15.9695Z" fill="white"/>
</svg>
