<svg width="336" height="296" viewBox="0 0 336 296" fill="none" xmlns="http://www.w3.org/2000/svg">
	<path d="M446.36 188.337L361.205 344.325H190.871L105.709 188.337L190.871 32.339H254.5L236.927 64.5034H208.441L140.83 188.337L208.441 312.17H343.636L411.239 188.337H376.057L326.055 279.944H226.043L176.012 188.337L226.023 96.7294H254.507L307.319 0.112915H173.282L70.5272 188.337L173.282 376.56H378.798L463.902 220.667L499.191 220.771L396.465 408.921H155.613L35.1907 188.327L155.613 -32.2577L360.99 -32.248L273.009 128.728L243.495 128.718L210.947 188.337L243.495 247.945H308.592L341.12 188.337L305.94 188.327L290.983 215.719H261.086L246.14 188.327L261.086 160.944H290.992L414.056 -64.4857L138.013 -64.4742L0 188.327L138.02 441.149H414.056L552.08 188.327L446.36 188.337Z" fill="#D9D9D9" />
</svg>