<?xml version="1.0" encoding="UTF-8"?>
<svg id="Layer_1" xmlns="http://www.w3.org/2000/svg" version="1.1" viewBox="0 0 336 505.7">
  <!-- Generator: Adobe Illustrator 29.5.1, SVG Export Plug-In . SVG Version: 2.1.0 Build 141)  -->
  <defs>
    <style>
      .st0 {
        fill: #00919f;
      }

      .st1 {
        opacity: .1;
      }
    </style>
  </defs>
  <g class="st1">
    <path class="st0" d="M504.7,252.9l-84.8,156h-169.7l-84.8-156,84.8-156h63.4l-17.5,32.2h-28.4l-67.4,123.8,67.4,123.8h134.7l67.3-123.8h-35l-49.8,91.6h-99.6l-49.8-91.6,49.8-91.6h28.4l52.6-96.6h-133.5l-102.4,188.2,102.4,188.2h204.7l84.8-155.9h35.2c0,.1-102.3,188.3-102.3,188.3h-239.9l-120.2-220.6L215,32.3h204.6l-87.6,161h-29.4l-32.4,59.6,32.4,59.6h64.9l32.4-59.6h-35l-14.9,27.4h-29.8l-14.9-27.4,14.9-27.4h29.8L472.5.1H197.5L60,252.9l137.5,252.8h275l137.5-252.8h-105.3Z"/>
  </g>
</svg>