<svg width="336" height="296" viewBox="0 0 336 296" fill="none" xmlns="http://www.w3.org/2000/svg">
<g opacity="0.1">
<path d="M444.679 188.337L359.845 344.325H190.152L105.311 188.337L190.152 32.339H253.541L236.035 64.5033H207.656L140.3 188.337L207.656 312.17H342.342L409.689 188.337H374.64L324.827 279.944H225.192L175.349 188.337L225.172 96.7294H253.548L306.162 0.112909H172.629L70.2615 188.337L172.629 376.56H377.371L462.154 220.667L497.31 220.771L394.972 408.921H155.026L35.0581 188.327L155.026 -32.2577L359.63 -32.248L271.981 128.728L242.578 128.718L210.153 188.337L242.578 247.945H307.429L339.835 188.337L304.787 188.327L289.886 215.719H260.103L245.213 188.327L260.103 160.944H289.895L412.496 -64.4857L137.493 -64.4742L0 188.327L137.5 441.149H412.496L550 188.327L444.679 188.337Z" fill="#D9D9D9"/>
</g>
</svg>
